<mxfile host="Electron" agent="Mozilla/5.0 (Windows NT 10.0; Win64; x64) AppleWebKit/537.36 (KHTML, like Gecko) draw.io/27.0.9 Chrome/134.0.6998.205 Electron/35.4.0 Safari/537.36" version="27.0.9">
  <diagram id="dEfLkkg3HoEi9s_YTyYE" name="MOUSEWORLD-TOPOLOGY">
    <mxGraphModel dx="3177" dy="1414" grid="1" gridSize="10" guides="1" tooltips="1" connect="1" arrows="1" fold="1" page="1" pageScale="1" pageWidth="291" pageHeight="413" math="0" shadow="0">
      <root>
        <mxCell id="0" />
        <mxCell id="1" parent="0" />
        <mxCell id="q56sevDSOZR_9UIxs0Uo-2" value="" style="ellipse;whiteSpace=wrap;html=1;strokeColor=#FFB366;" parent="1" vertex="1">
          <mxGeometry x="-1323.25" y="-149.75" width="952.5" height="620" as="geometry" />
        </mxCell>
        <mxCell id="kXjcsp7NdVAgZCyZb2x9-1" value="" style="ellipse;whiteSpace=wrap;html=1;fillColor=#fff2cc;strokeColor=#d6b656;" parent="1" vertex="1">
          <mxGeometry x="-1300" y="136" width="320" height="190" as="geometry" />
        </mxCell>
        <mxCell id="Jbfyh8YQ_689w-vTQsEM-16" value="" style="endArrow=none;html=1;rounded=0;strokeColor=default;align=center;verticalAlign=middle;fontFamily=Helvetica;fontSize=13;fontColor=default;labelBackgroundColor=default;strokeWidth=2;fontStyle=0;endFill=0;" parent="1" edge="1">
          <mxGeometry width="50" height="50" relative="1" as="geometry">
            <mxPoint x="-1309" y="219.99727272727276" as="sourcePoint" />
            <mxPoint x="-1270" y="220" as="targetPoint" />
          </mxGeometry>
        </mxCell>
        <mxCell id="g3rcaKSLz3rnCBlGtyKE-15" value="&lt;font color=&quot;#cc0000&quot;&gt;&lt;span&gt;DDoS&lt;/span&gt;&lt;/font&gt;&lt;font color=&quot;#141414&quot;&gt;&lt;span&gt; Victim&lt;br&gt;&lt;/span&gt;&lt;/font&gt;" style="text;whiteSpace=wrap;html=1;fontSize=13;fontStyle=1" parent="1" vertex="1">
          <mxGeometry x="-493.6999999999998" y="261" width="80" height="40" as="geometry" />
        </mxCell>
        <mxCell id="g3rcaKSLz3rnCBlGtyKE-20" value="" style="image;points=[];aspect=fixed;html=1;align=center;shadow=0;dashed=0;image=img/lib/allied_telesis/computer_and_terminals/Server_Desktop.svg;fontSize=13;fontStyle=1" parent="1" vertex="1">
          <mxGeometry x="-475" y="207" width="42.599999999999994" height="54" as="geometry" />
        </mxCell>
        <mxCell id="g3rcaKSLz3rnCBlGtyKE-70" value="&lt;span style=&quot;background-color: light-dark(#ffffff, var(--ge-dark-color, #121212));&quot;&gt;ens1&lt;/span&gt;" style="text;html=1;align=center;verticalAlign=middle;whiteSpace=wrap;rounded=0;" parent="1" vertex="1">
          <mxGeometry x="-507" y="207" width="60" height="30" as="geometry" />
        </mxCell>
        <mxCell id="kXjcsp7NdVAgZCyZb2x9-3" value="&lt;b&gt;EDGE&lt;/b&gt;" style="ellipse;shape=cloud;whiteSpace=wrap;html=1;" parent="1" vertex="1">
          <mxGeometry x="-1420" y="163.06" width="130" height="117.87" as="geometry" />
        </mxCell>
        <mxCell id="kXjcsp7NdVAgZCyZb2x9-4" value="R13" style="shape=cylinder3;whiteSpace=wrap;html=1;boundedLbl=1;backgroundOutline=1;size=15;fontSize=13;fontStyle=0" parent="1" vertex="1">
          <mxGeometry x="-607" y="205" width="60" height="60" as="geometry" />
        </mxCell>
        <mxCell id="kXjcsp7NdVAgZCyZb2x9-5" value="R3" style="shape=cylinder3;whiteSpace=wrap;html=1;boundedLbl=1;backgroundOutline=1;size=15;fontSize=13;fontStyle=0" parent="1" vertex="1">
          <mxGeometry x="-712" y="120" width="60" height="60" as="geometry" />
        </mxCell>
        <mxCell id="kXjcsp7NdVAgZCyZb2x9-6" value="R7" style="shape=cylinder3;whiteSpace=wrap;html=1;boundedLbl=1;backgroundOutline=1;size=15;fontSize=13;fontStyle=0" parent="1" vertex="1">
          <mxGeometry x="-712" y="292.5" width="60" height="60" as="geometry" />
        </mxCell>
        <mxCell id="kXjcsp7NdVAgZCyZb2x9-7" value="R6" style="shape=cylinder3;whiteSpace=wrap;html=1;boundedLbl=1;backgroundOutline=1;size=15;fontSize=13;fontStyle=0" parent="1" vertex="1">
          <mxGeometry x="-843.9000000000001" y="292.5" width="60" height="60" as="geometry" />
        </mxCell>
        <mxCell id="kXjcsp7NdVAgZCyZb2x9-8" value="R5" style="shape=cylinder3;whiteSpace=wrap;html=1;boundedLbl=1;backgroundOutline=1;size=15;fontSize=13;fontStyle=0" parent="1" vertex="1">
          <mxGeometry x="-843.9000000000001" y="205" width="60" height="60" as="geometry" />
        </mxCell>
        <mxCell id="kXjcsp7NdVAgZCyZb2x9-9" value="R4" style="shape=cylinder3;whiteSpace=wrap;html=1;boundedLbl=1;backgroundOutline=1;size=15;fontSize=13;fontStyle=0" parent="1" vertex="1">
          <mxGeometry x="-975.9000000000001" y="292.5" width="60" height="60" as="geometry" />
        </mxCell>
        <mxCell id="kXjcsp7NdVAgZCyZb2x9-10" value="R11" style="shape=cylinder3;whiteSpace=wrap;html=1;boundedLbl=1;backgroundOutline=1;size=15;fontSize=13;fontStyle=0" parent="1" vertex="1">
          <mxGeometry x="-1077" y="201" width="60" height="60" as="geometry" />
        </mxCell>
        <mxCell id="kXjcsp7NdVAgZCyZb2x9-11" value="R1" style="shape=cylinder3;whiteSpace=wrap;html=1;boundedLbl=1;backgroundOutline=1;size=15;fontSize=13;fontStyle=0" parent="1" vertex="1">
          <mxGeometry x="-975.9000000000001" y="120" width="60" height="60" as="geometry" />
        </mxCell>
        <mxCell id="kXjcsp7NdVAgZCyZb2x9-12" value="R12" style="shape=cylinder3;whiteSpace=wrap;html=1;boundedLbl=1;backgroundOutline=1;size=15;fontSize=13;fontStyle=0" parent="1" vertex="1">
          <mxGeometry x="-777" y="20" width="60" height="60" as="geometry" />
        </mxCell>
        <mxCell id="kXjcsp7NdVAgZCyZb2x9-13" value="" style="endArrow=none;html=1;rounded=0;exitX=0.5;exitY=0;exitDx=0;exitDy=0;exitPerimeter=0;strokeColor=default;strokeWidth=2;align=center;verticalAlign=middle;fontFamily=Helvetica;fontSize=13;fontColor=default;labelBackgroundColor=default;endFill=0;fontStyle=0;entryX=0.5;entryY=1;entryDx=0;entryDy=0;entryPerimeter=0;" parent="1" source="kXjcsp7NdVAgZCyZb2x9-9" target="kXjcsp7NdVAgZCyZb2x9-11" edge="1">
          <mxGeometry width="50" height="50" relative="1" as="geometry">
            <mxPoint x="-932" y="204.5" as="sourcePoint" />
            <mxPoint x="-932" y="139.5" as="targetPoint" />
          </mxGeometry>
        </mxCell>
        <mxCell id="kXjcsp7NdVAgZCyZb2x9-14" value="" style="endArrow=none;html=1;rounded=0;exitX=1;exitY=0.5;exitDx=0;exitDy=0;exitPerimeter=0;strokeColor=default;strokeWidth=2;align=center;verticalAlign=middle;fontFamily=Helvetica;fontSize=13;fontColor=default;labelBackgroundColor=default;endFill=0;fontStyle=0;entryX=0;entryY=0.5;entryDx=0;entryDy=0;entryPerimeter=0;" parent="1" source="kXjcsp7NdVAgZCyZb2x9-10" target="kXjcsp7NdVAgZCyZb2x9-11" edge="1">
          <mxGeometry width="50" height="50" relative="1" as="geometry">
            <mxPoint x="-976.03" y="232.5" as="sourcePoint" />
            <mxPoint x="-976.03" y="172.5" as="targetPoint" />
          </mxGeometry>
        </mxCell>
        <mxCell id="kXjcsp7NdVAgZCyZb2x9-15" value="" style="endArrow=none;html=1;rounded=0;exitX=1;exitY=0.5;exitDx=0;exitDy=0;exitPerimeter=0;strokeColor=default;strokeWidth=2;align=center;verticalAlign=middle;fontFamily=Helvetica;fontSize=13;fontColor=default;labelBackgroundColor=default;endFill=0;fontStyle=0;entryX=0;entryY=0.5;entryDx=0;entryDy=0;entryPerimeter=0;" parent="1" source="kXjcsp7NdVAgZCyZb2x9-10" target="kXjcsp7NdVAgZCyZb2x9-9" edge="1">
          <mxGeometry width="50" height="50" relative="1" as="geometry">
            <mxPoint x="-1008.2" y="248.5" as="sourcePoint" />
            <mxPoint x="-967.2" y="188.5" as="targetPoint" />
          </mxGeometry>
        </mxCell>
        <mxCell id="kXjcsp7NdVAgZCyZb2x9-16" value="R2" style="shape=cylinder3;whiteSpace=wrap;html=1;boundedLbl=1;backgroundOutline=1;size=15;fontSize=13;fontStyle=0" parent="1" vertex="1">
          <mxGeometry x="-843.9000000000001" y="120" width="60" height="60" as="geometry" />
        </mxCell>
        <mxCell id="kXjcsp7NdVAgZCyZb2x9-17" value="" style="endArrow=none;html=1;rounded=0;exitX=0.5;exitY=0;exitDx=0;exitDy=0;exitPerimeter=0;strokeColor=default;strokeWidth=2;align=center;verticalAlign=middle;fontFamily=Helvetica;fontSize=13;fontColor=default;labelBackgroundColor=default;endFill=0;fontStyle=0;entryX=0.5;entryY=1;entryDx=0;entryDy=0;entryPerimeter=0;" parent="1" source="kXjcsp7NdVAgZCyZb2x9-7" target="kXjcsp7NdVAgZCyZb2x9-8" edge="1">
          <mxGeometry width="50" height="50" relative="1" as="geometry">
            <mxPoint x="-814.0999999999999" y="292.5" as="sourcePoint" />
            <mxPoint x="-813.71" y="265.0000000000002" as="targetPoint" />
          </mxGeometry>
        </mxCell>
        <mxCell id="kXjcsp7NdVAgZCyZb2x9-18" value="" style="endArrow=none;html=1;rounded=0;exitX=0.5;exitY=0;exitDx=0;exitDy=0;exitPerimeter=0;strokeColor=default;strokeWidth=2;align=center;verticalAlign=middle;fontFamily=Helvetica;fontSize=13;fontColor=default;labelBackgroundColor=default;endFill=0;fontStyle=0;entryX=0.5;entryY=1;entryDx=0;entryDy=0;entryPerimeter=0;" parent="1" source="kXjcsp7NdVAgZCyZb2x9-8" edge="1">
          <mxGeometry width="50" height="50" relative="1" as="geometry">
            <mxPoint x="-814.02" y="208" as="sourcePoint" />
            <mxPoint x="-814.02" y="180" as="targetPoint" />
          </mxGeometry>
        </mxCell>
        <mxCell id="kXjcsp7NdVAgZCyZb2x9-19" value="" style="endArrow=none;html=1;rounded=0;exitX=1;exitY=0.5;exitDx=0;exitDy=0;exitPerimeter=0;strokeColor=default;strokeWidth=2;align=center;verticalAlign=middle;fontFamily=Helvetica;fontSize=13;fontColor=default;labelBackgroundColor=default;endFill=0;fontStyle=0;entryX=0;entryY=0.5;entryDx=0;entryDy=0;entryPerimeter=0;" parent="1" source="kXjcsp7NdVAgZCyZb2x9-9" target="kXjcsp7NdVAgZCyZb2x9-7" edge="1">
          <mxGeometry width="50" height="50" relative="1" as="geometry">
            <mxPoint x="-915.9000000000001" y="329" as="sourcePoint" />
            <mxPoint x="-915.9000000000001" y="216" as="targetPoint" />
          </mxGeometry>
        </mxCell>
        <mxCell id="kXjcsp7NdVAgZCyZb2x9-20" value="" style="endArrow=none;html=1;rounded=0;exitX=1;exitY=0.5;exitDx=0;exitDy=0;exitPerimeter=0;strokeColor=default;strokeWidth=2;align=center;verticalAlign=middle;fontFamily=Helvetica;fontSize=13;fontColor=default;labelBackgroundColor=default;endFill=0;fontStyle=0;entryX=0;entryY=0.5;entryDx=0;entryDy=0;entryPerimeter=0;" parent="1" edge="1">
          <mxGeometry width="50" height="50" relative="1" as="geometry">
            <mxPoint x="-915.9000000000001" y="150" as="sourcePoint" />
            <mxPoint x="-843.9000000000001" y="150" as="targetPoint" />
          </mxGeometry>
        </mxCell>
        <mxCell id="kXjcsp7NdVAgZCyZb2x9-21" value="" style="endArrow=none;html=1;rounded=0;exitX=1;exitY=0.5;exitDx=0;exitDy=0;exitPerimeter=0;strokeColor=default;strokeWidth=2;align=center;verticalAlign=middle;fontFamily=Helvetica;fontSize=13;fontColor=default;labelBackgroundColor=default;endFill=0;fontStyle=0;entryX=0;entryY=0.5;entryDx=0;entryDy=0;entryPerimeter=0;" parent="1" edge="1">
          <mxGeometry width="50" height="50" relative="1" as="geometry">
            <mxPoint x="-783.9000000000001" y="149.8800000000001" as="sourcePoint" />
            <mxPoint x="-711.9000000000001" y="149.8800000000001" as="targetPoint" />
          </mxGeometry>
        </mxCell>
        <mxCell id="kXjcsp7NdVAgZCyZb2x9-22" value="" style="endArrow=none;html=1;rounded=0;exitX=1;exitY=0.5;exitDx=0;exitDy=0;exitPerimeter=0;strokeColor=default;strokeWidth=2;align=center;verticalAlign=middle;fontFamily=Helvetica;fontSize=13;fontColor=default;labelBackgroundColor=default;endFill=0;fontStyle=0;entryX=0;entryY=0.5;entryDx=0;entryDy=0;entryPerimeter=0;" parent="1" edge="1">
          <mxGeometry width="50" height="50" relative="1" as="geometry">
            <mxPoint x="-783.9000000000001" y="322.3800000000001" as="sourcePoint" />
            <mxPoint x="-711.9000000000001" y="322.3800000000001" as="targetPoint" />
          </mxGeometry>
        </mxCell>
        <mxCell id="kXjcsp7NdVAgZCyZb2x9-23" value="" style="endArrow=none;html=1;rounded=0;exitX=1;exitY=0.5;exitDx=0;exitDy=0;exitPerimeter=0;strokeColor=default;strokeWidth=2;align=center;verticalAlign=middle;fontFamily=Helvetica;fontSize=13;fontColor=default;labelBackgroundColor=default;endFill=0;fontStyle=0;entryX=0;entryY=0.5;entryDx=0;entryDy=0;entryPerimeter=0;" parent="1" target="kXjcsp7NdVAgZCyZb2x9-4" edge="1">
          <mxGeometry width="50" height="50" relative="1" as="geometry">
            <mxPoint x="-652" y="155" as="sourcePoint" />
            <mxPoint x="-611" y="70" as="targetPoint" />
          </mxGeometry>
        </mxCell>
        <mxCell id="kXjcsp7NdVAgZCyZb2x9-24" value="" style="endArrow=none;html=1;rounded=0;exitX=0.5;exitY=0;exitDx=0;exitDy=0;exitPerimeter=0;strokeColor=default;strokeWidth=2;align=center;verticalAlign=middle;fontFamily=Helvetica;fontSize=13;fontColor=default;labelBackgroundColor=default;endFill=0;fontStyle=0;entryX=0.5;entryY=1;entryDx=0;entryDy=0;entryPerimeter=0;" parent="1" edge="1">
          <mxGeometry width="50" height="50" relative="1" as="geometry">
            <mxPoint x="-682.1199999999999" y="293" as="sourcePoint" />
            <mxPoint x="-682.1199999999999" y="180" as="targetPoint" />
          </mxGeometry>
        </mxCell>
        <mxCell id="kXjcsp7NdVAgZCyZb2x9-25" value="" style="endArrow=none;html=1;rounded=0;exitX=1;exitY=0.5;exitDx=0;exitDy=0;exitPerimeter=0;strokeColor=default;strokeWidth=2;align=center;verticalAlign=middle;fontFamily=Helvetica;fontSize=13;fontColor=default;labelBackgroundColor=default;endFill=0;fontStyle=0;entryX=0;entryY=0.5;entryDx=0;entryDy=0;entryPerimeter=0;" parent="1" source="kXjcsp7NdVAgZCyZb2x9-6" target="kXjcsp7NdVAgZCyZb2x9-4" edge="1">
          <mxGeometry width="50" height="50" relative="1" as="geometry">
            <mxPoint x="-652" y="318.5" as="sourcePoint" />
            <mxPoint x="-607" y="398.5" as="targetPoint" />
          </mxGeometry>
        </mxCell>
        <mxCell id="kXjcsp7NdVAgZCyZb2x9-26" value="" style="endArrow=none;html=1;rounded=0;exitX=0.5;exitY=0;exitDx=0;exitDy=0;exitPerimeter=0;strokeColor=default;strokeWidth=2;align=center;verticalAlign=middle;fontFamily=Helvetica;fontSize=13;fontColor=default;labelBackgroundColor=default;endFill=0;fontStyle=0;entryX=0.5;entryY=1;entryDx=0;entryDy=0;entryPerimeter=0;" parent="1" source="kXjcsp7NdVAgZCyZb2x9-16" target="kXjcsp7NdVAgZCyZb2x9-12" edge="1">
          <mxGeometry width="50" height="50" relative="1" as="geometry">
            <mxPoint x="-773.9000000000001" y="159.8800000000001" as="sourcePoint" />
            <mxPoint x="-701.9000000000001" y="159.8800000000001" as="targetPoint" />
          </mxGeometry>
        </mxCell>
        <mxCell id="kXjcsp7NdVAgZCyZb2x9-27" value="" style="endArrow=none;html=1;rounded=0;exitX=0.5;exitY=0;exitDx=0;exitDy=0;exitPerimeter=0;strokeColor=default;strokeWidth=2;align=center;verticalAlign=middle;fontFamily=Helvetica;fontSize=13;fontColor=default;labelBackgroundColor=default;endFill=0;fontStyle=0;" parent="1" source="kXjcsp7NdVAgZCyZb2x9-5" edge="1">
          <mxGeometry width="50" height="50" relative="1" as="geometry">
            <mxPoint x="-804" y="130" as="sourcePoint" />
            <mxPoint x="-747" y="80" as="targetPoint" />
          </mxGeometry>
        </mxCell>
        <mxCell id="kXjcsp7NdVAgZCyZb2x9-28" value="&lt;span style=&quot;background-color: rgb(255, 255, 255);&quot;&gt;ens4&lt;/span&gt;" style="text;html=1;align=center;verticalAlign=middle;whiteSpace=wrap;rounded=0;" parent="1" vertex="1">
          <mxGeometry x="-1035.9" y="196" width="60" height="30" as="geometry" />
        </mxCell>
        <mxCell id="kXjcsp7NdVAgZCyZb2x9-29" value="&lt;span style=&quot;background-color: rgb(255, 255, 255);&quot;&gt;ens5&lt;/span&gt;" style="text;html=1;align=center;verticalAlign=middle;whiteSpace=wrap;rounded=0;" parent="1" vertex="1">
          <mxGeometry x="-1037" y="246" width="60" height="30" as="geometry" />
        </mxCell>
        <mxCell id="kXjcsp7NdVAgZCyZb2x9-30" value="&lt;span style=&quot;background-color: rgb(255, 255, 255);&quot;&gt;ens5&lt;/span&gt;" style="text;html=1;align=center;verticalAlign=middle;whiteSpace=wrap;rounded=0;" parent="1" vertex="1">
          <mxGeometry x="-1017" y="292.5" width="60" height="30" as="geometry" />
        </mxCell>
        <mxCell id="kXjcsp7NdVAgZCyZb2x9-31" value="&lt;span style=&quot;background-color: rgb(255, 255, 255);&quot;&gt;ens6&lt;/span&gt;" style="text;html=1;align=center;verticalAlign=middle;whiteSpace=wrap;rounded=0;" parent="1" vertex="1">
          <mxGeometry x="-1017" y="140" width="60" height="26" as="geometry" />
        </mxCell>
        <mxCell id="kXjcsp7NdVAgZCyZb2x9-32" value="&lt;span style=&quot;background-color: rgb(255, 255, 255);&quot;&gt;ens4&lt;/span&gt;" style="text;html=1;align=center;verticalAlign=middle;whiteSpace=wrap;rounded=0;" parent="1" vertex="1">
          <mxGeometry x="-957" y="174.5" width="60" height="30" as="geometry" />
        </mxCell>
        <mxCell id="kXjcsp7NdVAgZCyZb2x9-33" value="&lt;span style=&quot;background-color: rgb(255, 255, 255);&quot;&gt;ens4&lt;/span&gt;" style="text;html=1;align=center;verticalAlign=middle;whiteSpace=wrap;rounded=0;" parent="1" vertex="1">
          <mxGeometry x="-957" y="269" width="60" height="30" as="geometry" />
        </mxCell>
        <mxCell id="kXjcsp7NdVAgZCyZb2x9-34" value="&lt;span style=&quot;background-color: rgb(255, 255, 255);&quot;&gt;ens6&lt;/span&gt;" style="text;html=1;align=center;verticalAlign=middle;whiteSpace=wrap;rounded=0;" parent="1" vertex="1">
          <mxGeometry x="-937" y="316" width="60" height="30" as="geometry" />
        </mxCell>
        <mxCell id="kXjcsp7NdVAgZCyZb2x9-35" value="&lt;span style=&quot;background-color: rgb(255, 255, 255);&quot;&gt;ens6&lt;/span&gt;" style="text;html=1;align=center;verticalAlign=middle;whiteSpace=wrap;rounded=0;" parent="1" vertex="1">
          <mxGeometry x="-877" y="316" width="60" height="30" as="geometry" />
        </mxCell>
        <mxCell id="kXjcsp7NdVAgZCyZb2x9-36" value="&lt;span style=&quot;background-color: light-dark(#ffffff, var(--ge-dark-color, #121212));&quot;&gt;ens4&lt;/span&gt;" style="text;html=1;align=center;verticalAlign=middle;whiteSpace=wrap;rounded=0;" parent="1" vertex="1">
          <mxGeometry x="-807" y="316" width="60" height="30" as="geometry" />
        </mxCell>
        <mxCell id="kXjcsp7NdVAgZCyZb2x9-37" value="&lt;span style=&quot;background-color: light-dark(#ffffff, var(--ge-dark-color, #121212));&quot;&gt;ens4&lt;/span&gt;" style="text;html=1;align=center;verticalAlign=middle;whiteSpace=wrap;rounded=0;" parent="1" vertex="1">
          <mxGeometry x="-747" y="316" width="60" height="30" as="geometry" />
        </mxCell>
        <mxCell id="kXjcsp7NdVAgZCyZb2x9-38" value="&lt;span style=&quot;background-color: light-dark(#ffffff, var(--ge-dark-color, #121212));&quot;&gt;ens5&lt;/span&gt;" style="text;html=1;align=center;verticalAlign=middle;whiteSpace=wrap;rounded=0;" parent="1" vertex="1">
          <mxGeometry x="-827" y="276" width="60" height="30" as="geometry" />
        </mxCell>
        <mxCell id="kXjcsp7NdVAgZCyZb2x9-39" value="&lt;span style=&quot;background-color: rgb(255, 255, 255);&quot;&gt;ens5&lt;/span&gt;" style="text;html=1;align=center;verticalAlign=middle;whiteSpace=wrap;rounded=0;" parent="1" vertex="1">
          <mxGeometry x="-827" y="186" width="60" height="30" as="geometry" />
        </mxCell>
        <mxCell id="kXjcsp7NdVAgZCyZb2x9-40" value="&lt;span style=&quot;background-color: rgb(255, 255, 255);&quot;&gt;ens4&lt;/span&gt;" style="text;html=1;align=center;verticalAlign=middle;whiteSpace=wrap;rounded=0;" parent="1" vertex="1">
          <mxGeometry x="-827" y="246" width="60" height="30" as="geometry" />
        </mxCell>
        <mxCell id="kXjcsp7NdVAgZCyZb2x9-41" value="&lt;span style=&quot;background-color: rgb(255, 255, 255);&quot;&gt;ens8&lt;/span&gt;" style="text;html=1;align=center;verticalAlign=middle;whiteSpace=wrap;rounded=0;" parent="1" vertex="1">
          <mxGeometry x="-827" y="166" width="60" height="30" as="geometry" />
        </mxCell>
        <mxCell id="kXjcsp7NdVAgZCyZb2x9-42" value="&lt;span style=&quot;background-color: light-dark(#ffffff, var(--ge-dark-color, #121212));&quot;&gt;ens6&lt;/span&gt;" style="text;html=1;align=center;verticalAlign=middle;whiteSpace=wrap;rounded=0;" parent="1" vertex="1">
          <mxGeometry x="-877" y="144.5" width="60" height="30" as="geometry" />
        </mxCell>
        <mxCell id="kXjcsp7NdVAgZCyZb2x9-43" value="&lt;span style=&quot;background-color: rgb(255, 255, 255);&quot;&gt;ens5&lt;/span&gt;" style="text;html=1;align=center;verticalAlign=middle;whiteSpace=wrap;rounded=0;" parent="1" vertex="1">
          <mxGeometry x="-937" y="146" width="60" height="28.5" as="geometry" />
        </mxCell>
        <mxCell id="kXjcsp7NdVAgZCyZb2x9-44" value="&lt;span style=&quot;background-color: rgb(255, 255, 255);&quot;&gt;ens7&lt;/span&gt;" style="text;html=1;align=center;verticalAlign=middle;whiteSpace=wrap;rounded=0;" parent="1" vertex="1">
          <mxGeometry x="-807" y="144.5" width="60" height="30" as="geometry" />
        </mxCell>
        <mxCell id="kXjcsp7NdVAgZCyZb2x9-45" value="&lt;span style=&quot;background-color: rgb(255, 255, 255);&quot;&gt;ens6&lt;/span&gt;" style="text;html=1;align=center;verticalAlign=middle;whiteSpace=wrap;rounded=0;" parent="1" vertex="1">
          <mxGeometry x="-747" y="144.5" width="60" height="30" as="geometry" />
        </mxCell>
        <mxCell id="kXjcsp7NdVAgZCyZb2x9-46" value="&lt;span style=&quot;background-color: rgb(255, 255, 255);&quot;&gt;ens6&lt;/span&gt;" style="text;html=1;align=center;verticalAlign=middle;whiteSpace=wrap;rounded=0;" parent="1" vertex="1">
          <mxGeometry x="-697" y="276" width="60" height="30" as="geometry" />
        </mxCell>
        <mxCell id="kXjcsp7NdVAgZCyZb2x9-47" value="&lt;span style=&quot;background-color: light-dark(#ffffff, var(--ge-dark-color, #121212));&quot;&gt;ens5&lt;/span&gt;" style="text;html=1;align=center;verticalAlign=middle;whiteSpace=wrap;rounded=0;" parent="1" vertex="1">
          <mxGeometry x="-697" y="166" width="60" height="30" as="geometry" />
        </mxCell>
        <mxCell id="kXjcsp7NdVAgZCyZb2x9-48" value="&lt;span style=&quot;background-color: rgb(255, 255, 255);&quot;&gt;ens5&lt;/span&gt;" style="text;html=1;align=center;verticalAlign=middle;whiteSpace=wrap;rounded=0;" parent="1" vertex="1">
          <mxGeometry x="-677" y="316" width="60" height="30" as="geometry" />
        </mxCell>
        <mxCell id="kXjcsp7NdVAgZCyZb2x9-49" value="&lt;span style=&quot;background-color: rgb(255, 255, 255);&quot;&gt;ens5&lt;/span&gt;" style="text;html=1;align=center;verticalAlign=middle;whiteSpace=wrap;rounded=0;" parent="1" vertex="1">
          <mxGeometry x="-637" y="239" width="60" height="30" as="geometry" />
        </mxCell>
        <mxCell id="kXjcsp7NdVAgZCyZb2x9-50" value="&lt;span style=&quot;background-color: rgb(255, 255, 255);&quot;&gt;ens4&lt;/span&gt;" style="text;html=1;align=center;verticalAlign=middle;whiteSpace=wrap;rounded=0;" parent="1" vertex="1">
          <mxGeometry x="-647" y="196" width="60" height="30" as="geometry" />
        </mxCell>
        <mxCell id="kXjcsp7NdVAgZCyZb2x9-51" value="&lt;span style=&quot;background-color: rgb(255, 255, 255);&quot;&gt;ens4&lt;/span&gt;" style="text;html=1;align=center;verticalAlign=middle;whiteSpace=wrap;rounded=0;" parent="1" vertex="1">
          <mxGeometry x="-677" y="135" width="60" height="30" as="geometry" />
        </mxCell>
        <mxCell id="kXjcsp7NdVAgZCyZb2x9-52" value="&lt;span style=&quot;background-color: rgb(255, 255, 255);&quot;&gt;ens7&lt;/span&gt;" style="text;html=1;align=center;verticalAlign=middle;whiteSpace=wrap;rounded=0;" parent="1" vertex="1">
          <mxGeometry x="-707" y="96" width="60" height="30" as="geometry" />
        </mxCell>
        <mxCell id="kXjcsp7NdVAgZCyZb2x9-53" value="&lt;span style=&quot;background-color: rgb(255, 255, 255);&quot;&gt;ens5&lt;/span&gt;" style="text;html=1;align=center;verticalAlign=middle;whiteSpace=wrap;rounded=0;" parent="1" vertex="1">
          <mxGeometry x="-827" y="96" width="60" height="30" as="geometry" />
        </mxCell>
        <mxCell id="kXjcsp7NdVAgZCyZb2x9-54" value="&lt;span style=&quot;background-color: rgb(255, 255, 255);&quot;&gt;ens4&lt;/span&gt;" style="text;html=1;align=center;verticalAlign=middle;whiteSpace=wrap;rounded=0;" parent="1" vertex="1">
          <mxGeometry x="-797" y="65" width="60" height="30" as="geometry" />
        </mxCell>
        <mxCell id="kXjcsp7NdVAgZCyZb2x9-55" value="&lt;span style=&quot;background-color: rgb(255, 255, 255);&quot;&gt;ens5&lt;/span&gt;" style="text;html=1;align=center;verticalAlign=middle;whiteSpace=wrap;rounded=0;" parent="1" vertex="1">
          <mxGeometry x="-757" y="66" width="60" height="30" as="geometry" />
        </mxCell>
        <mxCell id="kXjcsp7NdVAgZCyZb2x9-56" value="192.168.1.0/24" style="text;html=1;align=center;verticalAlign=middle;resizable=0;points=[];autosize=1;strokeColor=none;fillColor=none;" parent="1" vertex="1">
          <mxGeometry x="-1068" y="165" width="100" height="30" as="geometry" />
        </mxCell>
        <mxCell id="kXjcsp7NdVAgZCyZb2x9-57" value="192.168.2.0/24" style="text;html=1;align=center;verticalAlign=middle;resizable=0;points=[];autosize=1;strokeColor=none;fillColor=none;" parent="1" vertex="1">
          <mxGeometry x="-1047" y="264" width="100" height="30" as="geometry" />
        </mxCell>
        <mxCell id="kXjcsp7NdVAgZCyZb2x9-58" value="192.168.5.0/24" style="text;html=1;align=center;verticalAlign=middle;resizable=0;points=[];autosize=1;strokeColor=none;fillColor=none;" parent="1" vertex="1">
          <mxGeometry x="-927" y="336" width="100" height="30" as="geometry" />
        </mxCell>
        <mxCell id="kXjcsp7NdVAgZCyZb2x9-59" value="192.168.3.0/24" style="text;html=1;align=center;verticalAlign=middle;resizable=0;points=[];autosize=1;strokeColor=none;fillColor=none;" parent="1" vertex="1">
          <mxGeometry x="-957.5" y="220" width="100" height="30" as="geometry" />
        </mxCell>
        <mxCell id="kXjcsp7NdVAgZCyZb2x9-60" value="192.168.4.0/24" style="text;html=1;align=center;verticalAlign=middle;resizable=0;points=[];autosize=1;strokeColor=none;fillColor=none;" parent="1" vertex="1">
          <mxGeometry x="-937" y="114.5" width="100" height="30" as="geometry" />
        </mxCell>
        <mxCell id="kXjcsp7NdVAgZCyZb2x9-61" value="192.168.8.0/24" style="text;html=1;align=center;verticalAlign=middle;resizable=0;points=[];autosize=1;strokeColor=none;fillColor=none;" parent="1" vertex="1">
          <mxGeometry x="-797" y="114.5" width="100" height="30" as="geometry" />
        </mxCell>
        <mxCell id="kXjcsp7NdVAgZCyZb2x9-62" value="192.168.6.0/24" style="text;html=1;align=center;verticalAlign=middle;resizable=0;points=[];autosize=1;strokeColor=none;fillColor=none;" parent="1" vertex="1">
          <mxGeometry x="-907" y="180" width="100" height="30" as="geometry" />
        </mxCell>
        <mxCell id="kXjcsp7NdVAgZCyZb2x9-63" value="192.168.7.0/24" style="text;html=1;align=center;verticalAlign=middle;resizable=0;points=[];autosize=1;strokeColor=none;fillColor=none;" parent="1" vertex="1">
          <mxGeometry x="-817" y="264" width="100" height="30" as="geometry" />
        </mxCell>
        <mxCell id="kXjcsp7NdVAgZCyZb2x9-64" value="192.168.9.0/24" style="text;html=1;align=center;verticalAlign=middle;resizable=0;points=[];autosize=1;strokeColor=none;fillColor=none;" parent="1" vertex="1">
          <mxGeometry x="-797" y="336" width="100" height="30" as="geometry" />
        </mxCell>
        <mxCell id="kXjcsp7NdVAgZCyZb2x9-65" value="192.168.10.0/24" style="text;html=1;align=center;verticalAlign=middle;resizable=0;points=[];autosize=1;strokeColor=none;fillColor=none;" parent="1" vertex="1">
          <mxGeometry x="-712" y="220" width="110" height="30" as="geometry" />
        </mxCell>
        <mxCell id="kXjcsp7NdVAgZCyZb2x9-66" value="192.168.11.0/24" style="text;html=1;align=center;verticalAlign=middle;resizable=0;points=[];autosize=1;strokeColor=none;fillColor=none;" parent="1" vertex="1">
          <mxGeometry x="-652" y="286" width="110" height="30" as="geometry" />
        </mxCell>
        <mxCell id="kXjcsp7NdVAgZCyZb2x9-67" value="192.168.12.0/24" style="text;html=1;align=center;verticalAlign=middle;resizable=0;points=[];autosize=1;strokeColor=none;fillColor=none;" parent="1" vertex="1">
          <mxGeometry x="-647" y="166" width="110" height="30" as="geometry" />
        </mxCell>
        <mxCell id="kXjcsp7NdVAgZCyZb2x9-68" value="192.168.14.0/24" style="text;html=1;align=center;verticalAlign=middle;resizable=0;points=[];autosize=1;strokeColor=none;fillColor=none;" parent="1" vertex="1">
          <mxGeometry x="-707" y="80" width="110" height="30" as="geometry" />
        </mxCell>
        <mxCell id="kXjcsp7NdVAgZCyZb2x9-69" value="192.168.13.0/24" style="text;html=1;align=center;verticalAlign=middle;resizable=0;points=[];autosize=1;strokeColor=none;fillColor=none;" parent="1" vertex="1">
          <mxGeometry x="-832" y="80" width="110" height="30" as="geometry" />
        </mxCell>
        <mxCell id="kXjcsp7NdVAgZCyZb2x9-78" value="" style="endArrow=none;html=1;rounded=0;strokeColor=default;strokeWidth=2;align=center;verticalAlign=middle;fontFamily=Helvetica;fontSize=13;fontColor=default;fontStyle=0;labelBackgroundColor=default;endFill=0;" parent="1" edge="1">
          <mxGeometry width="50" height="50" relative="1" as="geometry">
            <mxPoint x="-1270" y="221" as="sourcePoint" />
            <mxPoint x="-1189" y="221.47" as="targetPoint" />
          </mxGeometry>
        </mxCell>
        <mxCell id="Jbfyh8YQ_689w-vTQsEM-9" value="" style="edgeLabel;html=1;align=center;verticalAlign=middle;resizable=0;points=[];rounded=0;strokeColor=default;strokeWidth=2;fontFamily=Helvetica;fontSize=13;fontColor=default;fontStyle=0;labelBackgroundColor=default;" parent="kXjcsp7NdVAgZCyZb2x9-78" vertex="1" connectable="0">
          <mxGeometry x="0.4743" y="1" relative="1" as="geometry">
            <mxPoint as="offset" />
          </mxGeometry>
        </mxCell>
        <mxCell id="Jbfyh8YQ_689w-vTQsEM-17" value="&lt;span style=&quot;font-size: 13px;&quot;&gt;eth1&lt;/span&gt;" style="edgeLabel;html=1;align=center;verticalAlign=middle;resizable=0;points=[];" parent="kXjcsp7NdVAgZCyZb2x9-78" vertex="1" connectable="0">
          <mxGeometry x="0.2483" y="1" relative="1" as="geometry">
            <mxPoint as="offset" />
          </mxGeometry>
        </mxCell>
        <mxCell id="kXjcsp7NdVAgZCyZb2x9-79" value="veth3" style="edgeLabel;html=1;align=center;verticalAlign=middle;resizable=0;points=[];rounded=0;strokeColor=default;strokeWidth=2;fontFamily=Helvetica;fontSize=13;fontColor=default;fontStyle=0;labelBackgroundColor=default;" parent="kXjcsp7NdVAgZCyZb2x9-78" vertex="1" connectable="0">
          <mxGeometry x="0.6423" relative="1" as="geometry">
            <mxPoint x="-56" y="-2" as="offset" />
          </mxGeometry>
        </mxCell>
        <mxCell id="kXjcsp7NdVAgZCyZb2x9-84" value="&lt;span style=&quot;font-size: 11px; background-color: rgb(255, 255, 255);&quot;&gt;10.0.1.20&lt;/span&gt;" style="text;html=1;align=center;verticalAlign=middle;resizable=0;points=[];autosize=1;strokeColor=none;fillColor=none;" parent="1" vertex="1">
          <mxGeometry x="-1260" y="190" width="70" height="30" as="geometry" />
        </mxCell>
        <mxCell id="kXjcsp7NdVAgZCyZb2x9-87" value="" style="endArrow=none;html=1;rounded=0;exitX=0.5;exitY=0;exitDx=0;exitDy=0;exitPerimeter=0;strokeColor=default;strokeWidth=2;align=center;verticalAlign=middle;fontFamily=Helvetica;fontSize=13;fontColor=default;labelBackgroundColor=default;endFill=0;fontStyle=0;" parent="1" edge="1">
          <mxGeometry width="50" height="50" relative="1" as="geometry">
            <mxPoint x="-822.23" y="120" as="sourcePoint" />
            <mxPoint x="-822" y="20" as="targetPoint" />
          </mxGeometry>
        </mxCell>
        <mxCell id="kXjcsp7NdVAgZCyZb2x9-88" value="ens4" style="edgeLabel;html=1;align=center;verticalAlign=middle;resizable=0;points=[];" parent="kXjcsp7NdVAgZCyZb2x9-87" vertex="1" connectable="0">
          <mxGeometry x="-0.6835" relative="1" as="geometry">
            <mxPoint as="offset" />
          </mxGeometry>
        </mxCell>
        <mxCell id="kXjcsp7NdVAgZCyZb2x9-92" value="192.168.15.0/24" style="edgeLabel;html=1;align=center;verticalAlign=middle;resizable=0;points=[];" parent="kXjcsp7NdVAgZCyZb2x9-87" vertex="1" connectable="0">
          <mxGeometry x="0.1483" y="1" relative="1" as="geometry">
            <mxPoint as="offset" />
          </mxGeometry>
        </mxCell>
        <mxCell id="kXjcsp7NdVAgZCyZb2x9-97" value="" style="rounded=0;orthogonalLoop=1;jettySize=auto;html=1;endArrow=none;endFill=0;strokeWidth=2;fontSize=13;fontStyle=1" parent="1" source="kXjcsp7NdVAgZCyZb2x9-98" target="kXjcsp7NdVAgZCyZb2x9-100" edge="1">
          <mxGeometry relative="1" as="geometry">
            <mxPoint x="-819.9" y="-117.5" as="targetPoint" />
            <mxPoint x="-819.4999999999999" y="-165.29999999999995" as="sourcePoint" />
          </mxGeometry>
        </mxCell>
        <mxCell id="kXjcsp7NdVAgZCyZb2x9-98" value="" style="outlineConnect=0;dashed=0;verticalLabelPosition=bottom;verticalAlign=top;align=center;html=1;shape=mxgraph.aws3.internet_3;fillColor=#D2D3D3;gradientColor=none;fontSize=13;fontStyle=1" parent="1" vertex="1">
          <mxGeometry x="-848.9" y="-236" width="60" height="46" as="geometry" />
        </mxCell>
        <mxCell id="kXjcsp7NdVAgZCyZb2x9-99" value="&lt;font&gt;&lt;span&gt;Internet&lt;/span&gt;&lt;/font&gt;" style="text;whiteSpace=wrap;html=1;fontSize=13;fontStyle=1;fontColor=default;" parent="1" vertex="1">
          <mxGeometry x="-843.9" y="-260" width="60" height="40" as="geometry" />
        </mxCell>
        <mxCell id="kXjcsp7NdVAgZCyZb2x9-100" value="gateway2" style="fillColor=#808080;aspect=fixed;sketch=0;pointerEvents=1;shadow=0;dashed=0;html=1;strokeColor=none;labelPosition=center;verticalLabelPosition=bottom;outlineConnect=0;verticalAlign=top;align=center;shape=mxgraph.openstack.neutron_router;fontSize=13;fontStyle=1" parent="1" vertex="1">
          <mxGeometry x="-843.9" y="-142" width="50" height="50" as="geometry" />
        </mxCell>
        <mxCell id="kXjcsp7NdVAgZCyZb2x9-101" value="gateway1" style="fillColor=#808080;aspect=fixed;sketch=0;pointerEvents=1;shadow=0;dashed=0;html=1;strokeColor=none;labelPosition=center;verticalLabelPosition=bottom;outlineConnect=0;verticalAlign=top;align=center;shape=mxgraph.openstack.neutron_router;fontSize=13;fontStyle=1" parent="1" vertex="1">
          <mxGeometry x="-843.9" y="-22.5" width="50" height="50" as="geometry" />
        </mxCell>
        <mxCell id="kXjcsp7NdVAgZCyZb2x9-102" value="" style="rounded=0;orthogonalLoop=1;jettySize=auto;html=1;endArrow=none;endFill=0;strokeWidth=2;fontSize=13;fontStyle=1" parent="1" edge="1">
          <mxGeometry relative="1" as="geometry">
            <mxPoint x="-819.15" y="-22.5" as="targetPoint" />
            <mxPoint x="-819.1899999999999" y="-91" as="sourcePoint" />
          </mxGeometry>
        </mxCell>
        <mxCell id="kXjcsp7NdVAgZCyZb2x9-103" value="&lt;span style=&quot;background-color: light-dark(#ffffff, var(--ge-dark-color, #121212));&quot;&gt;ens1&lt;/span&gt;" style="text;html=1;align=center;verticalAlign=middle;whiteSpace=wrap;rounded=0;" parent="1" vertex="1">
          <mxGeometry x="-861.9999999999999" y="9" width="60" height="30" as="geometry" />
        </mxCell>
        <mxCell id="kXjcsp7NdVAgZCyZb2x9-104" value="&lt;span style=&quot;background-color: light-dark(#ffffff, var(--ge-dark-color, #121212));&quot;&gt;ens1&lt;/span&gt;" style="text;html=1;align=center;verticalAlign=middle;whiteSpace=wrap;rounded=0;" parent="1" vertex="1">
          <mxGeometry x="-861.9999999999999" y="-110" width="60" height="30" as="geometry" />
        </mxCell>
        <mxCell id="kXjcsp7NdVAgZCyZb2x9-105" value="&lt;span style=&quot;background-color: light-dark(#ffffff, var(--ge-dark-color, #121212));&quot;&gt;ens2&lt;/span&gt;" style="text;html=1;align=center;verticalAlign=middle;whiteSpace=wrap;rounded=0;" parent="1" vertex="1">
          <mxGeometry x="-861.9999999999999" y="-40" width="60" height="30" as="geometry" />
        </mxCell>
        <mxCell id="kXjcsp7NdVAgZCyZb2x9-106" value="&lt;span style=&quot;background-color: light-dark(#ffffff, var(--ge-dark-color, #121212));&quot;&gt;ens2&lt;/span&gt;" style="text;html=1;align=center;verticalAlign=middle;whiteSpace=wrap;rounded=0;" parent="1" vertex="1">
          <mxGeometry x="-861.9999999999999" y="-160" width="60" height="30" as="geometry" />
        </mxCell>
        <mxCell id="kXjcsp7NdVAgZCyZb2x9-107" value="&lt;span style=&quot;background-color: light-dark(#ffffff, var(--ge-dark-color, #121212));&quot;&gt;ens1&lt;/span&gt;" style="text;html=1;align=center;verticalAlign=middle;whiteSpace=wrap;rounded=0;" parent="1" vertex="1">
          <mxGeometry x="-861.9999999999999" y="-205" width="60" height="30" as="geometry" />
        </mxCell>
        <mxCell id="kXjcsp7NdVAgZCyZb2x9-108" value="12.12.12.0/24" style="text;html=1;align=center;verticalAlign=middle;resizable=0;points=[];autosize=1;strokeColor=none;fillColor=none;" parent="1" vertex="1">
          <mxGeometry x="-863.9" y="-60" width="100" height="30" as="geometry" />
        </mxCell>
        <mxCell id="kXjcsp7NdVAgZCyZb2x9-109" value="" style="endArrow=none;html=1;rounded=0;exitX=1;exitY=0.5;exitDx=0;exitDy=0;exitPerimeter=0;strokeColor=default;strokeWidth=2;align=center;verticalAlign=middle;fontFamily=Helvetica;fontSize=13;fontColor=default;labelBackgroundColor=default;endFill=0;fontStyle=0;entryX=0;entryY=0.5;entryDx=0;entryDy=0;entryPerimeter=0;" parent="1" edge="1">
          <mxGeometry width="50" height="50" relative="1" as="geometry">
            <mxPoint x="-547" y="239" as="sourcePoint" />
            <mxPoint x="-475" y="239" as="targetPoint" />
          </mxGeometry>
        </mxCell>
        <mxCell id="kXjcsp7NdVAgZCyZb2x9-111" value="&lt;span style=&quot;background-color: light-dark(#ffffff, var(--ge-dark-color, #121212));&quot;&gt;ens1&lt;/span&gt;" style="text;html=1;align=center;verticalAlign=middle;whiteSpace=wrap;rounded=0;" parent="1" vertex="1">
          <mxGeometry x="-567" y="207" width="60" height="30" as="geometry" />
        </mxCell>
        <mxCell id="Jbfyh8YQ_689w-vTQsEM-1" value="gateway" style="fillColor=#808080;aspect=fixed;sketch=0;pointerEvents=1;shadow=0;dashed=0;html=1;strokeColor=none;labelPosition=center;verticalLabelPosition=bottom;outlineConnect=0;verticalAlign=top;align=center;shape=mxgraph.openstack.neutron_router;fontSize=13;fontStyle=1" parent="1" vertex="1">
          <mxGeometry x="-1204" y="197" width="50" height="50" as="geometry" />
        </mxCell>
        <mxCell id="Jbfyh8YQ_689w-vTQsEM-3" value="" style="rounded=0;orthogonalLoop=1;jettySize=auto;html=1;endArrow=none;endFill=0;strokeWidth=2;fontSize=13;fontStyle=0;entryX=0;entryY=0;entryDx=0;entryDy=22.5;entryPerimeter=0;strokeColor=default;align=center;verticalAlign=middle;fontFamily=Helvetica;fontColor=default;labelBackgroundColor=default;" parent="1" source="Jbfyh8YQ_689w-vTQsEM-1" target="kXjcsp7NdVAgZCyZb2x9-10" edge="1">
          <mxGeometry relative="1" as="geometry">
            <mxPoint x="-1100" y="228" as="targetPoint" />
            <mxPoint x="-1100" y="180" as="sourcePoint" />
          </mxGeometry>
        </mxCell>
        <mxCell id="Jbfyh8YQ_689w-vTQsEM-4" value="eth9" style="edgeLabel;html=1;align=center;verticalAlign=middle;resizable=0;points=[];rounded=0;strokeColor=default;strokeWidth=2;fontFamily=Helvetica;fontSize=13;fontColor=default;fontStyle=0;labelBackgroundColor=default;" parent="Jbfyh8YQ_689w-vTQsEM-3" vertex="1" connectable="0">
          <mxGeometry x="0.4473" relative="1" as="geometry">
            <mxPoint as="offset" />
          </mxGeometry>
        </mxCell>
        <mxCell id="Jbfyh8YQ_689w-vTQsEM-5" value="eth2" style="edgeLabel;html=1;align=center;verticalAlign=middle;resizable=0;points=[];rounded=0;strokeColor=default;strokeWidth=2;fontFamily=Helvetica;fontSize=13;fontColor=default;fontStyle=0;labelBackgroundColor=default;" parent="Jbfyh8YQ_689w-vTQsEM-3" vertex="1" connectable="0">
          <mxGeometry x="-0.8041" relative="1" as="geometry">
            <mxPoint as="offset" />
          </mxGeometry>
        </mxCell>
        <mxCell id="Jbfyh8YQ_689w-vTQsEM-8" value="&lt;span style=&quot;font-size: 11px; background-color: rgb(255, 255, 255);&quot;&gt;13.13.13.0/24&lt;/span&gt;" style="text;html=1;align=center;verticalAlign=middle;resizable=0;points=[];autosize=1;strokeColor=none;fillColor=none;" parent="1" vertex="1">
          <mxGeometry x="-1164" y="226" width="90" height="30" as="geometry" />
        </mxCell>
        <mxCell id="Jbfyh8YQ_689w-vTQsEM-10" value="&lt;span style=&quot;font-size: 11px; background-color: rgb(255, 255, 255);&quot;&gt;13.13.13.11&lt;/span&gt;" style="text;html=1;align=center;verticalAlign=middle;resizable=0;points=[];autosize=1;strokeColor=none;fillColor=none;" parent="1" vertex="1">
          <mxGeometry x="-1197" y="190" width="80" height="30" as="geometry" />
        </mxCell>
        <mxCell id="Jbfyh8YQ_689w-vTQsEM-11" value="&lt;span style=&quot;font-size: 11px; background-color: rgb(255, 255, 255);&quot;&gt;13.13.13.2&lt;/span&gt;" style="text;html=1;align=center;verticalAlign=middle;resizable=0;points=[];autosize=1;strokeColor=none;fillColor=none;" parent="1" vertex="1">
          <mxGeometry x="-1117" y="192" width="80" height="30" as="geometry" />
        </mxCell>
        <mxCell id="q56sevDSOZR_9UIxs0Uo-1" value="10.0.80.0/24" style="text;html=1;align=center;verticalAlign=middle;resizable=0;points=[];autosize=1;strokeColor=none;fillColor=none;" parent="1" vertex="1">
          <mxGeometry x="-557" y="235" width="90" height="30" as="geometry" />
        </mxCell>
        <mxCell id="q56sevDSOZR_9UIxs0Uo-3" value="&lt;span style=&quot;font-size: 24px;&quot;&gt;&lt;b style=&quot;&quot;&gt;&lt;font style=&quot;color: rgb(204, 102, 0);&quot;&gt;Transport&lt;/font&gt;&lt;/b&gt;&lt;/span&gt;&lt;div&gt;&lt;b style=&quot;font-size: 24px;&quot;&gt;&lt;font style=&quot;color: rgb(204, 102, 0);&quot;&gt;Network&lt;/font&gt;&lt;/b&gt;&lt;span style=&quot;font-size: 24px;&quot;&gt;&lt;b style=&quot;&quot;&gt;&lt;font style=&quot;color: rgb(204, 102, 0);&quot;&gt;&lt;/font&gt;&lt;/b&gt;&lt;/span&gt;&lt;/div&gt;" style="text;html=1;align=center;verticalAlign=middle;whiteSpace=wrap;rounded=0;" parent="1" vertex="1">
          <mxGeometry x="-1040" y="-2.5" width="60" height="30" as="geometry" />
        </mxCell>
      </root>
    </mxGraphModel>
  </diagram>
</mxfile>
